<svg width="24" height="24" viewBox="0 0 24 24" fill="none" xmlns="http://www.w3.org/2000/svg">
<path d="M18.4668 17.5C18.4668 17.0858 18.131 16.75 17.7168 16.75C17.3026 16.75 16.9668 17.0858 16.9668 17.5H18.4668ZM16.9668 6.5C16.9668 6.91421 17.3026 7.25 17.7168 7.25C18.131 7.25 18.4668 6.91421 18.4668 6.5H16.9668ZM16.7168 4.25H7V5.75H16.7168V4.25ZM5.25 6V18H6.75V6H5.25ZM7 19.75H16.7168V18.25H7V19.75ZM16.9668 17.5V18H18.4668V17.5H16.9668ZM16.9668 6V6.5H18.4668V6H16.9668ZM16.7168 19.75C17.6833 19.75 18.4668 18.9665 18.4668 18H16.9668C16.9668 18.1381 16.8548 18.25 16.7168 18.25V19.75ZM5.25 18C5.25 18.9665 6.0335 19.75 7 19.75V18.25C6.86193 18.25 6.75 18.1381 6.75 18H5.25ZM7 4.25C6.0335 4.25 5.25 5.0335 5.25 6H6.75C6.75 5.86193 6.86193 5.75 7 5.75V4.25ZM16.7168 5.75C16.8548 5.75 16.9668 5.86193 16.9668 6H18.4668C18.4668 5.0335 17.6833 4.25 16.7168 4.25V5.75Z" fill="#999999"/>
<path d="M11 12H18" stroke="#999999" stroke-width="1.5" stroke-linecap="round"/>
<path d="M15.7993 9.70898L18.7045 12.0001" stroke="#999999" stroke-width="1.5" stroke-linecap="round"/>
<path d="M18.7056 12L15.8004 14.2911" stroke="#999999" stroke-width="1.5" stroke-linecap="round"/>
</svg>
