<svg t="1612409407371" class="icon" viewBox="0 0 1024 1024" version="1.1" xmlns="http://www.w3.org/2000/svg" p-id="5431"
     width="60" height="60">
    <g fill="red">
        <path d="M621.12742 1009.526357c-19.318998 0.001023-37.871539-11.366885-46.112224-30.250978l-0.070608-0.163729L481.039871 756.892523 329.260026 908.672368c-9.616008 9.499351-22.057365 14.694677-35.097356 14.694677-6.339382 0-13.240559-1.418302-18.958794-3.89368-18.735713-7.830339-30.833239-25.800619-30.833239-45.820582L244.370637 64.209394c0-20.001543 12.127202-38.027082 30.894637-45.922912 5.916756-2.466168 12.788258-3.869121 18.897396-3.869121 13.70207 0 26.214035 5.27719 35.267225 14.865569l550.796608 550.795585c14.473643 13.919011 18.859533 35.653011 10.920724 54.168714-7.909134 18.736736-25.919323 30.839379-45.9004 30.839379L662.828171 665.086607l99.115392 234.843656c10.616802 24.994254-1.168616 54.270021-26.28362 65.228607l-0.144286 0.062422-95.246271 40.405245C634.039497 1008.27383 627.539456 1009.526357 621.12742 1009.526357zM603.183745 967.06836c4.29277 9.739828 15.531741 14.356986 25.091468 10.299577l95.169523-40.373523c9.873882-4.344958 14.368242-15.35471 10.231015-25.094538L616.550171 634.387421l228.696656 0c7.614421 0 14.534018-4.750187 17.627473-12.100596l0.049119-0.11461c2.952238-6.858198 1.333368-14.901385-4.027733-20.013823l-0.258896-0.25378L307.36332 50.631144l-0.182149-0.195451c-3.291976-3.529383-7.671727-5.319146-13.018501-5.319146-2.045589 0-4.940522 0.610914-7.040347 1.486864-7.302313 3.071965-12.0525 9.991562-12.0525 17.607006l0 809.443389c0 7.612375 4.720511 14.488992 12.026918 17.517979l0.271176 0.115634c1.859347 0.813528 4.653997 1.381463 6.794753 1.381463 4.910846 0 9.689686-2.048659 13.456477-5.770424l183.951569-183.951569L603.183745 967.06836z"
              p-id="5432"></path>
    </g>

</svg>
