<svg width="40" height="30" viewBox="0 0 40 30" fill="none" xmlns="http://www.w3.org/2000/svg">
    <path d="M27.8694 7.39417L21.5106 3.66064L15 7.48781L21.3605 11.2231L27.8694 7.39417V7.39417Z" fill="white"/>
    <path d="M21.3874 18.6885L21.1504 18.5463V26.0307L27.7531 29.9098V22.4255L21.3874 18.6885V18.6885Z" fill="white"/>
    <path d="M21.3788 11.2092L15.0166 7.47742V22.4271V22.4323L21.3788 26.1676V11.2092V11.2092Z" fill="#C1C1C1"/>
    <path d="M34.126 11.2092L40.4848 7.47571L40.4882 7.47744V15L34.126 18.7352V11.2092V11.2092Z" fill="white"/>
    <path d="M27.7539 22.4254V29.9098L40.4886 22.4324V22.4271V14.8665L27.7539 22.4254V22.4254Z" fill="#C1C1C1"/>
    <path d="M34.1363 3.7474V3.7474L27.7536 0L21.3896 3.73699L27.7536 7.47225V7.47225L34.1312 11.2127L40.4883 7.47746L34.1363 3.7474V3.7474Z" fill="#C1C1C1"/>
<!--    <path d="M56.32 13.576H59.002L56.734 20.812H65.608C66.76 20.812 67.732 19.84 67.732 18.688V17.266H66.832V18.688C66.832 19.354 66.274 19.912 65.608 19.912H57.976L59.974 13.576H68.29V12.658H56.32V13.576ZM68.434 22.558H55.672C55.006 22.558 54.466 22 54.466 21.334V11.632H53.566V21.334C53.566 22.486 54.502 23.458 55.672 23.458H68.434V22.558ZM57.094 8.932H67.516V8.032H57.094V8.932ZM53.566 7.312V10.462H54.466V7.312H53.566ZM84.166 23.656C85.174 23.656 85.966 22.864 85.966 21.856V20.326C85.966 19.318 85.174 18.526 84.166 18.526H73.816C72.808 18.526 72.016 19.318 72.016 20.326V21.856C72.016 22.864 72.808 23.656 73.816 23.656H84.166ZM83.068 17.41C84.076 17.41 84.85 16.618 84.85 15.61V14.764C84.85 13.756 84.076 12.964 83.068 12.964H74.914C73.906 12.964 73.132 13.756 73.132 14.764V15.61C73.132 16.618 73.906 17.41 74.914 17.41H83.068ZM73.816 22.738C73.33 22.738 72.916 22.342 72.916 21.856V20.326C72.916 19.84 73.33 19.426 73.816 19.426H84.166C84.652 19.426 85.066 19.84 85.066 20.326V21.856C85.066 22.342 84.652 22.738 84.166 22.738H73.816ZM74.914 16.51C74.428 16.51 74.032 16.096 74.032 15.61V14.764C74.032 14.278 74.428 13.882 74.914 13.882H83.068C83.554 13.882 83.95 14.278 83.95 14.764V15.61C83.95 16.096 83.554 16.51 83.068 16.51H74.914ZM82.798 6.988V8.14H75.184V6.988H74.284V8.14H70.738V9.04H74.284V10.156H75.184V9.04H82.798V10.156H83.698V9.04H87.244V8.14H83.698V6.988H82.798ZM72.052 14.026V12.64C72.052 12.154 72.448 11.758 72.934 11.758H85.048C85.534 11.758 85.93 12.154 85.93 12.64V14.026H86.83V12.64C86.83 11.632 86.056 10.84 85.048 10.84H72.934C71.926 10.84 71.152 11.632 71.152 12.64V14.026H72.052ZM101.86 18.238C102.652 18.238 103.318 17.59 103.318 16.78V15.862C103.318 15.052 102.652 14.404 101.86 14.404H91.978C90.988 14.404 90.178 15.232 90.178 16.186V21.622C90.178 22.63 90.97 23.404 91.978 23.404H102.058C102.85 23.404 103.516 22.756 103.516 21.946V21.064C103.516 20.254 102.85 19.606 102.058 19.606H91.096V18.238H101.86ZM102.058 20.506C102.364 20.506 102.616 20.758 102.616 21.064V21.946C102.616 22.252 102.364 22.504 102.058 22.504H91.978C91.492 22.504 91.096 22.108 91.096 21.622V20.506H102.058ZM91.096 16.186C91.096 15.7 91.492 15.304 91.978 15.304H101.86C102.148 15.304 102.4 15.556 102.4 15.862V16.78C102.4 17.086 102.148 17.338 101.86 17.338H91.096V16.186ZM96.388 10.678V12.118H91.06C90.052 12.118 89.278 12.928 89.278 13.936V14.872H90.178V13.936C90.178 13.432 90.574 13.018 91.06 13.018H102.598C103.084 13.018 103.48 13.432 103.48 13.936V14.872H104.38V13.936C104.38 12.928 103.552 12.118 102.598 12.118H97.288V10.678H96.388ZM90.412 7.276L88.972 9.634H91.798V11.56H92.698V9.634H96.55V8.734H90.574L91.168 7.744L90.412 7.276ZM99.286 7.276L97.846 9.634H100.474V11.56H101.392V9.634H105.01V8.734H99.466L100.06 7.744L99.286 7.276ZM113.164 19.426H117.538V22.576H112.714V23.476H123.28V22.576H118.456V19.426H122.83V18.526H118.456V16.06H120.634C121.822 16.06 122.776 15.088 122.776 13.936V9.418C122.776 8.266 121.822 7.294 120.634 7.294H115.342C114.154 7.294 113.2 8.266 113.2 9.418V13.936C113.2 15.088 114.154 16.06 115.342 16.06H117.538V18.526H113.164V19.426ZM107.08 9.166H109.132V14.692H107.188V15.592H109.132V21.352L106.72 21.946L106.918 22.81L112.48 21.442L112.264 20.56L110.032 21.118V15.592H111.976V14.692H110.032V9.166H112.066V8.266H107.08V9.166ZM114.118 9.418C114.118 8.752 114.64 8.194 115.342 8.194H117.538V11.29H114.118V9.418ZM120.634 8.194C121.336 8.194 121.858 8.752 121.858 9.418V11.29H118.456V8.194H120.634ZM114.118 13.936V12.19H117.538V15.16H115.342C114.64 15.16 114.118 14.602 114.118 13.936ZM120.634 15.16H118.456V12.19H121.858V13.936C121.858 14.602 121.336 15.16 120.634 15.16ZM125.494 8.356H132.55V16.906H124.9V17.824H132.55V23.692H133.45V17.824H141.1V16.906H133.45V8.356H140.488V7.456H125.494V8.356ZM138.616 9.544C138.13 11.65 137.428 13.414 136.564 15.142L137.374 15.538C138.292 13.792 138.958 11.974 139.48 9.742L138.616 9.544ZM126.52 9.796L128.608 15.484L129.454 15.196L127.366 9.49L126.52 9.796ZM156.976 9.418V11.776C156.976 12.442 156.418 13 155.752 13H145.24L147.076 7.33L146.212 7.06L143.998 13.9H155.752C156.904 13.9 157.876 12.928 157.876 11.776V9.418H156.976ZM144.736 17.608C144.736 16.942 145.294 16.384 145.96 16.384H156.04C156.706 16.384 157.264 16.942 157.264 17.608V21.352C157.264 22.018 156.706 22.558 156.04 22.558H145.96C145.294 22.558 144.736 22.018 144.736 21.352V17.608ZM143.836 21.352C143.836 22.504 144.808 23.476 145.96 23.476H156.04C157.192 23.476 158.164 22.504 158.164 21.352V17.608C158.164 16.456 157.192 15.484 156.04 15.484H145.96C144.808 15.484 143.836 16.456 143.836 17.608V21.352Z" fill="white"/>-->
<!--    <path d="M56.32 13.576H56.27V13.626H56.32V13.576ZM59.002 13.576L59.0497 13.591L59.0701 13.526H59.002V13.576ZM56.734 20.812L56.6863 20.797L56.6659 20.862H56.734V20.812ZM67.732 17.266H67.782V17.216H67.732V17.266ZM66.832 17.266V17.216H66.782V17.266H66.832ZM57.976 19.912L57.9283 19.897L57.9078 19.962H57.976V19.912ZM59.974 13.576V13.526H59.9373L59.9263 13.561L59.974 13.576ZM68.29 13.576V13.626H68.34V13.576H68.29ZM68.29 12.658H68.34V12.608H68.29V12.658ZM56.32 12.658V12.608H56.27V12.658H56.32ZM68.434 22.558H68.484V22.508H68.434V22.558ZM54.466 11.632H54.516V11.582H54.466V11.632ZM53.566 11.632V11.582H53.516V11.632H53.566ZM68.434 23.458V23.508H68.484V23.458H68.434ZM57.094 8.932H57.044V8.982H57.094V8.932ZM67.516 8.932V8.982H67.566V8.932H67.516ZM67.516 8.032H67.566V7.982H67.516V8.032ZM57.094 8.032V7.982H57.044V8.032H57.094ZM53.566 7.312V7.262H53.516V7.312H53.566ZM53.566 10.462H53.516V10.512H53.566V10.462ZM54.466 10.462V10.512H54.516V10.462H54.466ZM54.466 7.312H54.516V7.262H54.466V7.312ZM56.32 13.626H59.002V13.526H56.32V13.626ZM58.9543 13.561L56.6863 20.797L56.7817 20.827L59.0497 13.591L58.9543 13.561ZM56.734 20.862H65.608V20.762H56.734V20.862ZM65.608 20.862C66.7876 20.862 67.782 19.8676 67.782 18.688H67.682C67.682 19.8124 66.7324 20.762 65.608 20.762V20.862ZM67.782 18.688V17.266H67.682V18.688H67.782ZM67.732 17.216H66.832V17.316H67.732V17.216ZM66.782 17.266V18.688H66.882V17.266H66.782ZM66.782 18.688C66.782 19.3264 66.2464 19.862 65.608 19.862V19.962C66.3016 19.962 66.882 19.3816 66.882 18.688H66.782ZM65.608 19.862H57.976V19.962H65.608V19.862ZM58.0237 19.927L60.0217 13.591L59.9263 13.561L57.9283 19.897L58.0237 19.927ZM59.974 13.626H68.29V13.526H59.974V13.626ZM68.34 13.576V12.658H68.24V13.576H68.34ZM68.29 12.608H56.32V12.708H68.29V12.608ZM56.27 12.658V13.576H56.37V12.658H56.27ZM68.434 22.508H55.672V22.608H68.434V22.508ZM55.672 22.508C55.0346 22.508 54.516 21.9734 54.516 21.334H54.416C54.416 22.0266 54.9774 22.608 55.672 22.608V22.508ZM54.516 21.334V11.632H54.416V21.334H54.516ZM54.466 11.582H53.566V11.682H54.466V11.582ZM53.516 11.632V21.334H53.616V11.632H53.516ZM53.516 21.334C53.516 22.5128 54.4736 23.508 55.672 23.508V23.408C54.5304 23.408 53.616 22.4592 53.616 21.334H53.516ZM55.672 23.508H68.434V23.408H55.672V23.508ZM68.484 23.458V22.558H68.384V23.458H68.484ZM57.094 8.982H67.516V8.882H57.094V8.982ZM67.566 8.932V8.032H67.466V8.932H67.566ZM67.516 7.982H57.094V8.082H67.516V7.982ZM57.044 8.032V8.932H57.144V8.032H57.044ZM53.516 7.312V10.462H53.616V7.312H53.516ZM53.566 10.512H54.466V10.412H53.566V10.512ZM54.516 10.462V7.312H54.416V10.462H54.516ZM54.466 7.262H53.566V7.362H54.466V7.262ZM82.798 6.988V6.938H82.748V6.988H82.798ZM82.798 8.14V8.19H82.848V8.14H82.798ZM75.184 8.14H75.134V8.19H75.184V8.14ZM75.184 6.988H75.234V6.938H75.184V6.988ZM74.284 6.988V6.938H74.234V6.988H74.284ZM74.284 8.14V8.19H74.334V8.14H74.284ZM70.738 8.14V8.09H70.688V8.14H70.738ZM70.738 9.04H70.688V9.09H70.738V9.04ZM74.284 9.04H74.334V8.99H74.284V9.04ZM74.284 10.156H74.234V10.206H74.284V10.156ZM75.184 10.156V10.206H75.234V10.156H75.184ZM75.184 9.04V8.99H75.134V9.04H75.184ZM82.798 9.04H82.848V8.99H82.798V9.04ZM82.798 10.156H82.748V10.206H82.798V10.156ZM83.698 10.156V10.206H83.748V10.156H83.698ZM83.698 9.04V8.99H83.648V9.04H83.698ZM87.244 9.04V9.09H87.294V9.04H87.244ZM87.244 8.14H87.294V8.09H87.244V8.14ZM83.698 8.14H83.648V8.19H83.698V8.14ZM83.698 6.988H83.748V6.938H83.698V6.988ZM72.052 14.026V14.076H72.102V14.026H72.052ZM85.93 14.026H85.88V14.076H85.93V14.026ZM86.83 14.026V14.076H86.88V14.026H86.83ZM71.152 14.026H71.102V14.076H71.152V14.026ZM84.166 23.706C85.2016 23.706 86.016 22.8916 86.016 21.856H85.916C85.916 22.8364 85.1464 23.606 84.166 23.606V23.706ZM86.016 21.856V20.326H85.916V21.856H86.016ZM86.016 20.326C86.016 19.2904 85.2016 18.476 84.166 18.476V18.576C85.1464 18.576 85.916 19.3456 85.916 20.326H86.016ZM84.166 18.476H73.816V18.576H84.166V18.476ZM73.816 18.476C72.7804 18.476 71.966 19.2904 71.966 20.326H72.066C72.066 19.3456 72.8356 18.576 73.816 18.576V18.476ZM71.966 20.326V21.856H72.066V20.326H71.966ZM71.966 21.856C71.966 22.8916 72.7804 23.706 73.816 23.706V23.606C72.8356 23.606 72.066 22.8364 72.066 21.856H71.966ZM73.816 23.706H84.166V23.606H73.816V23.706ZM83.068 17.46C84.1043 17.46 84.9 16.645 84.9 15.61H84.8C84.8 16.591 84.0477 17.36 83.068 17.36V17.46ZM84.9 15.61V14.764H84.8V15.61H84.9ZM84.9 14.764C84.9 13.729 84.1043 12.914 83.068 12.914V13.014C84.0477 13.014 84.8 13.783 84.8 14.764H84.9ZM83.068 12.914H74.914V13.014H83.068V12.914ZM74.914 12.914C73.8777 12.914 73.082 13.729 73.082 14.764H73.182C73.182 13.783 73.9343 13.014 74.914 13.014V12.914ZM73.082 14.764V15.61H73.182V14.764H73.082ZM73.082 15.61C73.082 16.645 73.8777 17.46 74.914 17.46V17.36C73.9343 17.36 73.182 16.591 73.182 15.61H73.082ZM74.914 17.46H83.068V17.36H74.914V17.46ZM73.816 22.688C73.3563 22.688 72.966 22.3131 72.966 21.856H72.866C72.866 22.3709 73.3037 22.788 73.816 22.788V22.688ZM72.966 21.856V20.326H72.866V21.856H72.966ZM72.966 20.326C72.966 19.8676 73.3576 19.476 73.816 19.476V19.376C73.3024 19.376 72.866 19.8124 72.866 20.326H72.966ZM73.816 19.476H84.166V19.376H73.816V19.476ZM84.166 19.476C84.6244 19.476 85.016 19.8676 85.016 20.326H85.116C85.116 19.8124 84.6796 19.376 84.166 19.376V19.476ZM85.016 20.326V21.856H85.116V20.326H85.016ZM85.016 21.856C85.016 22.3131 84.6257 22.688 84.166 22.688V22.788C84.6783 22.788 85.116 22.3709 85.116 21.856H85.016ZM84.166 22.688H73.816V22.788H84.166V22.688ZM74.914 16.46C74.4569 16.46 74.082 16.0697 74.082 15.61H73.982C73.982 16.1223 74.3991 16.56 74.914 16.56V16.46ZM74.082 15.61V14.764H73.982V15.61H74.082ZM74.082 14.764C74.082 14.3056 74.4556 13.932 74.914 13.932V13.832C74.4004 13.832 73.982 14.2504 73.982 14.764H74.082ZM74.914 13.932H83.068V13.832H74.914V13.932ZM83.068 13.932C83.5264 13.932 83.9 14.3056 83.9 14.764H84C84 14.2504 83.5816 13.832 83.068 13.832V13.932ZM83.9 14.764V15.61H84V14.764H83.9ZM83.9 15.61C83.9 16.0697 83.5251 16.46 83.068 16.46V16.56C83.5829 16.56 84 16.1223 84 15.61H83.9ZM83.068 16.46H74.914V16.56H83.068V16.46ZM82.748 6.988V8.14H82.848V6.988H82.748ZM82.798 8.09H75.184V8.19H82.798V8.09ZM75.234 8.14V6.988H75.134V8.14H75.234ZM75.184 6.938H74.284V7.038H75.184V6.938ZM74.234 6.988V8.14H74.334V6.988H74.234ZM74.284 8.09H70.738V8.19H74.284V8.09ZM70.688 8.14V9.04H70.788V8.14H70.688ZM70.738 9.09H74.284V8.99H70.738V9.09ZM74.234 9.04V10.156H74.334V9.04H74.234ZM74.284 10.206H75.184V10.106H74.284V10.206ZM75.234 10.156V9.04H75.134V10.156H75.234ZM75.184 9.09H82.798V8.99H75.184V9.09ZM82.748 9.04V10.156H82.848V9.04H82.748ZM82.798 10.206H83.698V10.106H82.798V10.206ZM83.748 10.156V9.04H83.648V10.156H83.748ZM83.698 9.09H87.244V8.99H83.698V9.09ZM87.294 9.04V8.14H87.194V9.04H87.294ZM87.244 8.09H83.698V8.19H87.244V8.09ZM83.748 8.14V6.988H83.648V8.14H83.748ZM83.698 6.938H82.798V7.038H83.698V6.938ZM72.102 14.026V12.64H72.002V14.026H72.102ZM72.102 12.64C72.102 12.1816 72.4756 11.808 72.934 11.808V11.708C72.4204 11.708 72.002 12.1264 72.002 12.64H72.102ZM72.934 11.808H85.048V11.708H72.934V11.808ZM85.048 11.808C85.5064 11.808 85.88 12.1816 85.88 12.64H85.98C85.98 12.1264 85.5616 11.708 85.048 11.708V11.808ZM85.88 12.64V14.026H85.98V12.64H85.88ZM85.93 14.076H86.83V13.976H85.93V14.076ZM86.88 14.026V12.64H86.78V14.026H86.88ZM86.88 12.64C86.88 11.605 86.0843 10.79 85.048 10.79V10.89C86.0277 10.89 86.78 11.659 86.78 12.64H86.88ZM85.048 10.79H72.934V10.89H85.048V10.79ZM72.934 10.79C71.8977 10.79 71.102 11.605 71.102 12.64H71.202C71.202 11.659 71.9543 10.89 72.934 10.89V10.79ZM71.102 12.64V14.026H71.202V12.64H71.102ZM71.152 14.076H72.052V13.976H71.152V14.076ZM91.096 19.606H91.046V19.656H91.096V19.606ZM91.096 18.238V18.188H91.046V18.238H91.096ZM91.096 20.506V20.456H91.046V20.506H91.096ZM91.096 17.338H91.046V17.388H91.096V17.338ZM96.388 10.678V10.628H96.338V10.678H96.388ZM96.388 12.118V12.168H96.438V12.118H96.388ZM89.278 14.872H89.228V14.922H89.278V14.872ZM90.178 14.872V14.922H90.228V14.872H90.178ZM103.48 14.872H103.43V14.922H103.48V14.872ZM104.38 14.872V14.922H104.43V14.872H104.38ZM97.288 12.118H97.238V12.168H97.288V12.118ZM97.288 10.678H97.338V10.628H97.288V10.678ZM90.412 7.276L90.4383 7.23349L90.3955 7.20701L90.3693 7.24994L90.412 7.276ZM88.972 9.634L88.9293 9.60794L88.8829 9.684H88.972V9.634ZM91.798 9.634H91.848V9.584H91.798V9.634ZM91.798 11.56H91.748V11.61H91.798V11.56ZM92.698 11.56V11.61H92.748V11.56H92.698ZM92.698 9.634V9.584H92.648V9.634H92.698ZM96.55 9.634V9.684H96.6V9.634H96.55ZM96.55 8.734H96.6V8.684H96.55V8.734ZM90.574 8.734L90.5311 8.70827L90.4857 8.784H90.574V8.734ZM91.168 7.744L91.2109 7.76972L91.2362 7.72744L91.1943 7.70149L91.168 7.744ZM99.286 7.276L99.3119 7.23321L99.2693 7.20746L99.2433 7.24994L99.286 7.276ZM97.846 9.634L97.8033 9.60794L97.7569 9.684H97.846V9.634ZM100.474 9.634H100.524V9.584H100.474V9.634ZM100.474 11.56H100.424V11.61H100.474V11.56ZM101.392 11.56V11.61H101.442V11.56H101.392ZM101.392 9.634V9.584H101.342V9.634H101.392ZM105.01 9.634V9.684H105.06V9.634H105.01ZM105.01 8.734H105.06V8.684H105.01V8.734ZM99.466 8.734L99.4231 8.70827L99.3777 8.784H99.466V8.734ZM100.06 7.744L100.103 7.76972L100.129 7.727L100.086 7.70121L100.06 7.744ZM101.86 18.288C102.679 18.288 103.368 17.618 103.368 16.78H103.268C103.268 17.562 102.625 18.188 101.86 18.188V18.288ZM103.368 16.78V15.862H103.268V16.78H103.368ZM103.368 15.862C103.368 15.024 102.679 14.354 101.86 14.354V14.454C102.625 14.454 103.268 15.08 103.268 15.862H103.368ZM101.86 14.354H91.978V14.454H101.86V14.354ZM91.978 14.354C90.9604 14.354 90.128 15.2044 90.128 16.186H90.228C90.228 15.2596 91.0156 14.454 91.978 14.454V14.354ZM90.128 16.186V21.622H90.228V16.186H90.128ZM90.128 21.622C90.128 22.6583 90.943 23.454 91.978 23.454V23.354C90.997 23.354 90.228 22.6017 90.228 21.622H90.128ZM91.978 23.454H102.058V23.354H91.978V23.454ZM102.058 23.454C102.877 23.454 103.566 22.784 103.566 21.946H103.466C103.466 22.728 102.823 23.354 102.058 23.354V23.454ZM103.566 21.946V21.064H103.466V21.946H103.566ZM103.566 21.064C103.566 20.226 102.877 19.556 102.058 19.556V19.656C102.823 19.656 103.466 20.282 103.466 21.064H103.566ZM102.058 19.556H91.096V19.656H102.058V19.556ZM91.146 19.606V18.238H91.046V19.606H91.146ZM91.096 18.288H101.86V18.188H91.096V18.288ZM102.058 20.556C102.336 20.556 102.566 20.7856 102.566 21.064H102.666C102.666 20.7304 102.392 20.456 102.058 20.456V20.556ZM102.566 21.064V21.946H102.666V21.064H102.566ZM102.566 21.946C102.566 22.2244 102.336 22.454 102.058 22.454V22.554C102.392 22.554 102.666 22.2796 102.666 21.946H102.566ZM102.058 22.454H91.978V22.554H102.058V22.454ZM91.978 22.454C91.5196 22.454 91.146 22.0804 91.146 21.622H91.046C91.046 22.1356 91.4644 22.554 91.978 22.554V22.454ZM91.146 21.622V20.506H91.046V21.622H91.146ZM91.096 20.556H102.058V20.456H91.096V20.556ZM91.146 16.186C91.146 15.7276 91.5196 15.354 91.978 15.354V15.254C91.4644 15.254 91.046 15.6724 91.046 16.186H91.146ZM91.978 15.354H101.86V15.254H91.978V15.354ZM101.86 15.354C102.119 15.354 102.35 15.5825 102.35 15.862H102.45C102.45 15.5295 102.177 15.254 101.86 15.254V15.354ZM102.35 15.862V16.78H102.45V15.862H102.35ZM102.35 16.78C102.35 17.0595 102.119 17.288 101.86 17.288V17.388C102.177 17.388 102.45 17.1125 102.45 16.78H102.35ZM101.86 17.288H91.096V17.388H101.86V17.288ZM91.146 17.338V16.186H91.046V17.338H91.146ZM96.338 10.678V12.118H96.438V10.678H96.338ZM96.388 12.068H91.06V12.168H96.388V12.068ZM91.06 12.068C90.0231 12.068 89.228 12.9017 89.228 13.936H89.328C89.328 12.9543 90.0809 12.168 91.06 12.168V12.068ZM89.228 13.936V14.872H89.328V13.936H89.228ZM89.278 14.922H90.178V14.822H89.278V14.922ZM90.228 14.872V13.936H90.128V14.872H90.228ZM90.228 13.936C90.228 13.4576 90.6035 13.068 91.06 13.068V12.968C90.5445 12.968 90.128 13.4064 90.128 13.936H90.228ZM91.06 13.068H102.598V12.968H91.06V13.068ZM102.598 13.068C103.054 13.068 103.43 13.4576 103.43 13.936H103.53C103.53 13.4064 103.114 12.968 102.598 12.968V13.068ZM103.43 13.936V14.872H103.53V13.936H103.43ZM103.48 14.922H104.38V14.822H103.48V14.922ZM104.43 14.872V13.936H104.33V14.872H104.43ZM104.43 13.936C104.43 12.9007 103.58 12.068 102.598 12.068V12.168C103.524 12.168 104.33 12.9553 104.33 13.936H104.43ZM102.598 12.068H97.288V12.168H102.598V12.068ZM97.338 12.118V10.678H97.238V12.118H97.338ZM97.288 10.628H96.388V10.728H97.288V10.628ZM90.3693 7.24994L88.9293 9.60794L89.0147 9.66006L90.4547 7.30206L90.3693 7.24994ZM88.972 9.684H91.798V9.584H88.972V9.684ZM91.748 9.634V11.56H91.848V9.634H91.748ZM91.798 11.61H92.698V11.51H91.798V11.61ZM92.748 11.56V9.634H92.648V11.56H92.748ZM92.698 9.684H96.55V9.584H92.698V9.684ZM96.6 9.634V8.734H96.5V9.634H96.6ZM96.55 8.684H90.574V8.784H96.55V8.684ZM90.6169 8.75972L91.2109 7.76972L91.1251 7.71827L90.5311 8.70827L90.6169 8.75972ZM91.1943 7.70149L90.4383 7.23349L90.3857 7.31851L91.1417 7.78651L91.1943 7.70149ZM99.2433 7.24994L97.8033 9.60794L97.8887 9.66006L99.3287 7.30206L99.2433 7.24994ZM97.846 9.684H100.474V9.584H97.846V9.684ZM100.424 9.634V11.56H100.524V9.634H100.424ZM100.474 11.61H101.392V11.51H100.474V11.61ZM101.442 11.56V9.634H101.342V11.56H101.442ZM101.392 9.684H105.01V9.584H101.392V9.684ZM105.06 9.634V8.734H104.96V9.634H105.06ZM105.01 8.684H99.466V8.784H105.01V8.684ZM99.5089 8.75972L100.103 7.76972L100.017 7.71827L99.4231 8.70827L99.5089 8.75972ZM100.086 7.70121L99.3119 7.23321L99.2601 7.31879L100.034 7.78679L100.086 7.70121ZM113.164 19.426H113.114V19.476H113.164V19.426ZM117.538 19.426H117.588V19.376H117.538V19.426ZM117.538 22.576V22.626H117.588V22.576H117.538ZM112.714 22.576V22.526H112.664V22.576H112.714ZM112.714 23.476H112.664V23.526H112.714V23.476ZM123.28 23.476V23.526H123.33V23.476H123.28ZM123.28 22.576H123.33V22.526H123.28V22.576ZM118.456 22.576H118.406V22.626H118.456V22.576ZM118.456 19.426V19.376H118.406V19.426H118.456ZM122.83 19.426V19.476H122.88V19.426H122.83ZM122.83 18.526H122.88V18.476H122.83V18.526ZM118.456 18.526H118.406V18.576H118.456V18.526ZM118.456 16.06V16.01H118.406V16.06H118.456ZM117.538 16.06H117.588V16.01H117.538V16.06ZM117.538 18.526V18.576H117.588V18.526H117.538ZM113.164 18.526V18.476H113.114V18.526H113.164ZM107.08 9.166H107.03V9.216H107.08V9.166ZM109.132 9.166H109.182V9.116H109.132V9.166ZM109.132 14.692V14.742H109.182V14.692H109.132ZM107.188 14.692V14.642H107.138V14.692H107.188ZM107.188 15.592H107.138V15.642H107.188V15.592ZM109.132 15.592H109.182V15.542H109.132V15.592ZM109.132 21.352L109.144 21.4005L109.182 21.3912V21.352H109.132ZM106.72 21.946L106.708 21.8975L106.66 21.9092L106.671 21.9572L106.72 21.946ZM106.918 22.81L106.869 22.8212L106.881 22.8707L106.93 22.8586L106.918 22.81ZM112.48 21.442L112.492 21.4906L112.54 21.4786L112.529 21.4301L112.48 21.442ZM112.264 20.56L112.313 20.5481L112.301 20.4993L112.252 20.5115L112.264 20.56ZM110.032 21.118H109.982V21.182L110.044 21.1665L110.032 21.118ZM110.032 15.592V15.542H109.982V15.592H110.032ZM111.976 15.592V15.642H112.026V15.592H111.976ZM111.976 14.692H112.026V14.642H111.976V14.692ZM110.032 14.692H109.982V14.742H110.032V14.692ZM110.032 9.166V9.116H109.982V9.166H110.032ZM112.066 9.166V9.216H112.116V9.166H112.066ZM112.066 8.266H112.116V8.216H112.066V8.266ZM107.08 8.266V8.216H107.03V8.266H107.08ZM117.538 8.194H117.588V8.144H117.538V8.194ZM117.538 11.29V11.34H117.588V11.29H117.538ZM114.118 11.29H114.068V11.34H114.118V11.29ZM121.858 11.29V11.34H121.908V11.29H121.858ZM118.456 11.29H118.406V11.34H118.456V11.29ZM118.456 8.194V8.144H118.406V8.194H118.456ZM114.118 12.19V12.14H114.068V12.19H114.118ZM117.538 12.19H117.588V12.14H117.538V12.19ZM117.538 15.16V15.21H117.588V15.16H117.538ZM118.456 15.16H118.406V15.21H118.456V15.16ZM118.456 12.19V12.14H118.406V12.19H118.456ZM121.858 12.19H121.908V12.14H121.858V12.19ZM113.164 19.476H117.538V19.376H113.164V19.476ZM117.488 19.426V22.576H117.588V19.426H117.488ZM117.538 22.526H112.714V22.626H117.538V22.526ZM112.664 22.576V23.476H112.764V22.576H112.664ZM112.714 23.526H123.28V23.426H112.714V23.526ZM123.33 23.476V22.576H123.23V23.476H123.33ZM123.28 22.526H118.456V22.626H123.28V22.526ZM118.506 22.576V19.426H118.406V22.576H118.506ZM118.456 19.476H122.83V19.376H118.456V19.476ZM122.88 19.426V18.526H122.78V19.426H122.88ZM122.83 18.476H118.456V18.576H122.83V18.476ZM118.506 18.526V16.06H118.406V18.526H118.506ZM118.456 16.11H120.634V16.01H118.456V16.11ZM120.634 16.11C121.85 16.11 122.826 15.1156 122.826 13.936H122.726C122.726 15.0604 121.794 16.01 120.634 16.01V16.11ZM122.826 13.936V9.418H122.726V13.936H122.826ZM122.826 9.418C122.826 8.23839 121.85 7.244 120.634 7.244V7.344C121.794 7.344 122.726 8.29361 122.726 9.418H122.826ZM120.634 7.244H115.342V7.344H120.634V7.244ZM115.342 7.244C114.126 7.244 113.15 8.23839 113.15 9.418H113.25C113.25 8.29361 114.182 7.344 115.342 7.344V7.244ZM113.15 9.418V13.936H113.25V9.418H113.15ZM113.15 13.936C113.15 15.1156 114.126 16.11 115.342 16.11V16.01C114.182 16.01 113.25 15.0604 113.25 13.936H113.15ZM115.342 16.11H117.538V16.01H115.342V16.11ZM117.488 16.06V18.526H117.588V16.06H117.488ZM117.538 18.476H113.164V18.576H117.538V18.476ZM113.114 18.526V19.426H113.214V18.526H113.114ZM107.08 9.216H109.132V9.116H107.08V9.216ZM109.082 9.166V14.692H109.182V9.166H109.082ZM109.132 14.642H107.188V14.742H109.132V14.642ZM107.138 14.692V15.592H107.238V14.692H107.138ZM107.188 15.642H109.132V15.542H107.188V15.642ZM109.082 15.592V21.352H109.182V15.592H109.082ZM109.12 21.3035L106.708 21.8975L106.732 21.9945L109.144 21.4005L109.12 21.3035ZM106.671 21.9572L106.869 22.8212L106.967 22.7988L106.769 21.9348L106.671 21.9572ZM106.93 22.8586L112.492 21.4906L112.468 21.3934L106.906 22.7614L106.93 22.8586ZM112.529 21.4301L112.313 20.5481L112.215 20.5719L112.431 21.4539L112.529 21.4301ZM112.252 20.5115L110.02 21.0695L110.044 21.1665L112.276 20.6085L112.252 20.5115ZM110.082 21.118V15.592H109.982V21.118H110.082ZM110.032 15.642H111.976V15.542H110.032V15.642ZM112.026 15.592V14.692H111.926V15.592H112.026ZM111.976 14.642H110.032V14.742H111.976V14.642ZM110.082 14.692V9.166H109.982V14.692H110.082ZM110.032 9.216H112.066V9.116H110.032V9.216ZM112.116 9.166V8.266H112.016V9.166H112.116ZM112.066 8.216H107.08V8.316H112.066V8.216ZM107.03 8.266V9.166H107.13V8.266H107.03ZM114.168 9.418C114.168 8.77865 114.669 8.244 115.342 8.244V8.144C114.611 8.144 114.068 8.72535 114.068 9.418H114.168ZM115.342 8.244H117.538V8.144H115.342V8.244ZM117.488 8.194V11.29H117.588V8.194H117.488ZM117.538 11.24H114.118V11.34H117.538V11.24ZM114.168 11.29V9.418H114.068V11.29H114.168ZM120.634 8.244C121.307 8.244 121.808 8.77865 121.808 9.418H121.908C121.908 8.72535 121.365 8.144 120.634 8.144V8.244ZM121.808 9.418V11.29H121.908V9.418H121.808ZM121.858 11.24H118.456V11.34H121.858V11.24ZM118.506 11.29V8.194H118.406V11.29H118.506ZM118.456 8.244H120.634V8.144H118.456V8.244ZM114.168 13.936V12.19H114.068V13.936H114.168ZM114.118 12.24H117.538V12.14H114.118V12.24ZM117.488 12.19V15.16H117.588V12.19H117.488ZM117.538 15.11H115.342V15.21H117.538V15.11ZM115.342 15.11C114.669 15.11 114.168 14.5754 114.168 13.936H114.068C114.068 14.6286 114.611 15.21 115.342 15.21V15.11ZM120.634 15.11H118.456V15.21H120.634V15.11ZM118.506 15.16V12.19H118.406V15.16H118.506ZM118.456 12.24H121.858V12.14H118.456V12.24ZM121.808 12.19V13.936H121.908V12.19H121.808ZM121.808 13.936C121.808 14.5754 121.307 15.11 120.634 15.11V15.21C121.365 15.21 121.908 14.6286 121.908 13.936H121.808ZM125.494 8.356H125.444V8.406H125.494V8.356ZM132.55 8.356H132.6V8.306H132.55V8.356ZM132.55 16.906V16.956H132.6V16.906H132.55ZM124.9 16.906V16.856H124.85V16.906H124.9ZM124.9 17.824H124.85V17.874H124.9V17.824ZM132.55 17.824H132.6V17.774H132.55V17.824ZM132.55 23.692H132.5V23.742H132.55V23.692ZM133.45 23.692V23.742H133.5V23.692H133.45ZM133.45 17.824V17.774H133.4V17.824H133.45ZM141.1 17.824V17.874H141.15V17.824H141.1ZM141.1 16.906H141.15V16.856H141.1V16.906ZM133.45 16.906H133.4V16.956H133.45V16.906ZM133.45 8.356V8.306H133.4V8.356H133.45ZM140.488 8.356V8.406H140.538V8.356H140.488ZM140.488 7.456H140.538V7.406H140.488V7.456ZM125.494 7.456V7.406H125.444V7.456H125.494ZM138.616 9.544L138.627 9.49526L138.579 9.48411L138.567 9.53276L138.616 9.544ZM136.564 15.142L136.519 15.1196L136.497 15.1648L136.542 15.1869L136.564 15.142ZM137.374 15.538L137.352 15.5829L137.396 15.6042L137.418 15.5613L137.374 15.538ZM139.48 9.742L139.529 9.75339L139.54 9.70448L139.491 9.69326L139.48 9.742ZM126.52 9.796L126.503 9.74898L126.456 9.76607L126.473 9.81323L126.52 9.796ZM128.608 15.484L128.561 15.5012L128.578 15.5471L128.624 15.5313L128.608 15.484ZM129.454 15.196L129.47 15.2433L129.519 15.2268L129.501 15.1788L129.454 15.196ZM127.366 9.49L127.413 9.47282L127.396 9.42604L127.349 9.44298L127.366 9.49ZM125.494 8.406H132.55V8.306H125.494V8.406ZM132.5 8.356V16.906H132.6V8.356H132.5ZM132.55 16.856H124.9V16.956H132.55V16.856ZM124.85 16.906V17.824H124.95V16.906H124.85ZM124.9 17.874H132.55V17.774H124.9V17.874ZM132.5 17.824V23.692H132.6V17.824H132.5ZM132.55 23.742H133.45V23.642H132.55V23.742ZM133.5 23.692V17.824H133.4V23.692H133.5ZM133.45 17.874H141.1V17.774H133.45V17.874ZM141.15 17.824V16.906H141.05V17.824H141.15ZM141.1 16.856H133.45V16.956H141.1V16.856ZM133.5 16.906V8.356H133.4V16.906H133.5ZM133.45 8.406H140.488V8.306H133.45V8.406ZM140.538 8.356V7.456H140.438V8.356H140.538ZM140.488 7.406H125.494V7.506H140.488V7.406ZM125.444 7.456V8.356H125.544V7.456H125.444ZM138.567 9.53276C138.082 11.6341 137.382 13.3944 136.519 15.1196L136.609 15.1644C137.474 13.4336 138.178 11.6659 138.665 9.55524L138.567 9.53276ZM136.542 15.1869L137.352 15.5829L137.396 15.4931L136.586 15.0971L136.542 15.1869ZM137.418 15.5613C138.338 13.8111 139.006 11.989 139.529 9.75339L139.431 9.73061C138.91 11.959 138.246 13.7729 137.33 15.5147L137.418 15.5613ZM139.491 9.69326L138.627 9.49526L138.605 9.59274L139.469 9.79074L139.491 9.69326ZM126.473 9.81323L128.561 15.5012L128.655 15.4668L126.567 9.77877L126.473 9.81323ZM128.624 15.5313L129.47 15.2433L129.438 15.1487L128.592 15.4367L128.624 15.5313ZM129.501 15.1788L127.413 9.47282L127.319 9.50718L129.407 15.2132L129.501 15.1788ZM127.349 9.44298L126.503 9.74898L126.537 9.84302L127.383 9.53702L127.349 9.44298ZM156.976 9.418V9.368H156.926V9.418H156.976ZM145.24 13L145.192 12.9846L145.171 13.05H145.24V13ZM147.076 7.33L147.124 7.3454L147.139 7.29734L147.091 7.28227L147.076 7.33ZM146.212 7.06L146.227 7.01228L146.18 6.99751L146.164 7.0446L146.212 7.06ZM143.998 13.9L143.95 13.8846L143.929 13.95H143.998V13.9ZM157.876 9.418H157.926V9.368H157.876V9.418ZM156.926 9.418V11.776H157.026V9.418H156.926ZM156.926 11.776C156.926 12.4144 156.39 12.95 155.752 12.95V13.05C156.446 13.05 157.026 12.4696 157.026 11.776H156.926ZM155.752 12.95H145.24V13.05H155.752V12.95ZM145.288 13.0154L147.124 7.3454L147.028 7.3146L145.192 12.9846L145.288 13.0154ZM147.091 7.28227L146.227 7.01228L146.197 7.10772L147.061 7.37772L147.091 7.28227ZM146.164 7.0446L143.95 13.8846L144.046 13.9154L146.26 7.0754L146.164 7.0446ZM143.998 13.95H155.752V13.85H143.998V13.95ZM155.752 13.95C156.932 13.95 157.926 12.9556 157.926 11.776H157.826C157.826 12.9004 156.876 13.85 155.752 13.85V13.95ZM157.926 11.776V9.418H157.826V11.776H157.926ZM157.876 9.368H156.976V9.468H157.876V9.368ZM144.786 17.608C144.786 16.9696 145.322 16.434 145.96 16.434V16.334C145.266 16.334 144.686 16.9144 144.686 17.608H144.786ZM145.96 16.434H156.04V16.334H145.96V16.434ZM156.04 16.434C156.678 16.434 157.214 16.9696 157.214 17.608H157.314C157.314 16.9144 156.734 16.334 156.04 16.334V16.434ZM157.214 17.608V21.352H157.314V17.608H157.214ZM157.214 21.352C157.214 21.9894 156.679 22.508 156.04 22.508V22.608C156.733 22.608 157.314 22.0466 157.314 21.352H157.214ZM156.04 22.508H145.96V22.608H156.04V22.508ZM145.96 22.508C145.321 22.508 144.786 21.9894 144.786 21.352H144.686C144.686 22.0466 145.267 22.608 145.96 22.608V22.508ZM144.786 21.352V17.608H144.686V21.352H144.786ZM143.786 21.352C143.786 22.5316 144.78 23.526 145.96 23.526V23.426C144.836 23.426 143.886 22.4764 143.886 21.352H143.786ZM145.96 23.526H156.04V23.426H145.96V23.526ZM156.04 23.526C157.22 23.526 158.214 22.5316 158.214 21.352H158.114C158.114 22.4764 157.164 23.426 156.04 23.426V23.526ZM158.214 21.352V17.608H158.114V21.352H158.214ZM158.214 17.608C158.214 16.4284 157.22 15.434 156.04 15.434V15.534C157.164 15.534 158.114 16.4836 158.114 17.608H158.214ZM156.04 15.434H145.96V15.534H156.04V15.434ZM145.96 15.434C144.78 15.434 143.786 16.4284 143.786 17.608H143.886C143.886 16.4836 144.836 15.534 145.96 15.534V15.434ZM143.786 17.608V21.352H143.886V17.608H143.786Z" fill="white"/>-->
</svg>